<svg width="94" height="39" viewBox="0 0 94 39" fill="none" xmlns="http://www.w3.org/2000/svg">
<g clip-path="url(#clip0_1_83)">
<path fill-rule="evenodd" clip-rule="evenodd" d="M1.05521 8.81453C1.97365 10.0622 3.1841 10.805 4.68656 11.043C6.18902 11.2809 7.55885 10.9468 8.79615 10.0406C10.0552 9.13771 10.805 7.92666 11.0457 6.4073C11.2863 4.88793 10.9456 3.51609 10.0234 2.29179C9.12674 1.04754 7.9272 0.306447 6.42475 0.0684812C4.92229 -0.169485 3.54153 0.162934 2.2825 1.06574C1.04893 1.94861 0.311825 3.14974 0.0711812 4.66911C-0.169463 6.18848 0.158553 7.57024 1.05521 8.81453ZM7.33226 1.79703C7.79049 2.42773 7.65068 3.3105 7.01997 3.76873L6.8887 3.86411L7.75051 5.05027L8.85557 4.24743C9.3048 4.86576 9.17918 5.72636 8.57982 6.19168L8.90702 6.64211C9.13616 6.95746 9.06626 7.39884 8.75088 7.62796C8.43558 7.85709 7.99415 7.78717 7.76505 7.47182L7.43822 7.02198L6.21827 7.90832L6.64932 8.5016C6.87843 8.81698 6.80853 9.25833 6.49317 9.48748C6.17781 9.71662 5.73643 9.64671 5.50732 9.33133L5.07626 8.73807L4.44128 9.19935C4.12592 9.4285 3.68454 9.35859 3.45543 9.04321C3.2263 8.72791 3.29621 8.28648 3.61156 8.05742L4.24656 7.59604L3.38476 6.40987L2.87516 6.78011C2.55981 7.00924 2.11843 6.93933 1.88931 6.62397C1.66019 6.30861 1.7301 5.86723 2.04546 5.63812L2.55505 5.26787L2.49594 5.18652C2.0377 4.55581 2.17752 3.67304 2.80823 3.21481L3.69705 4.43817L4.917 3.55182L4.90325 3.53289C4.44501 2.90219 4.58483 2.01942 5.21554 1.56118L6.059 2.72211L7.33226 1.79703ZM4.52676 5.58016L5.74671 4.69381L6.60851 5.87998L5.38855 6.76633L4.52676 5.58016Z" fill="#7B68EE"/>
<path d="M2.19055 37.8039V13.4474H8.94415V37.8039H2.19055Z" fill="black"/>
<path d="M21.1005 23.7304V37.804H14.3469V13.4476H20.9916V17.7829H21.2313C21.7831 16.3596 22.6618 15.234 23.8673 14.4062C25.0728 13.5637 26.576 13.1426 28.377 13.1426C30.9186 13.1426 32.9519 13.9632 34.4769 15.6044C36.0164 17.2311 36.7862 19.4677 36.7862 22.3144V37.804H30.0326V23.5126C30.0326 22.0167 29.6478 20.8475 28.878 20.0051C28.1227 19.1627 27.0698 18.7415 25.7191 18.7415C24.3538 18.7415 23.2428 19.1845 22.3859 20.0704C21.529 20.9419 21.1005 22.1619 21.1005 23.7304Z" fill="black"/>
<path d="M43.7795 37.8039V18.5452H40.3591V13.4474H43.7795V11.6827C43.7795 9.05395 44.5348 7.08598 46.0453 5.77883C47.5703 4.47169 49.4728 3.81812 51.7531 3.81812C52.7988 3.81812 53.7501 3.90526 54.607 4.07954C55.4785 4.23931 56.1175 4.37729 56.5242 4.49347L55.326 9.54776C55.0645 9.47518 54.745 9.40251 54.3674 9.32993C53.9898 9.25727 53.5904 9.22094 53.1692 9.22094C52.1815 9.22094 51.4844 9.45334 51.0778 9.91815C50.6856 10.3684 50.4895 11.0074 50.4895 11.8352V13.4474H55.3477V18.5452H50.4895V37.8039H43.7795Z" fill="black"/>
<path d="M66.2406 5.34311V37.8039H59.4871V5.34311H66.2406Z" fill="black"/>
<path d="M87.2421 27.4557V13.4474H93.9959V37.8039H87.5032V33.3814H87.2421C86.7049 34.8047 85.7971 35.9521 84.5185 36.8235C83.2555 37.6949 81.7084 38.1234 79.8784 38.1089C77.424 38.1234 75.4342 37.3174 73.9091 35.6907C72.3987 34.0495 71.6434 31.8055 71.6434 28.9588V13.4474H78.397V27.7825C78.397 29.2058 78.7819 30.3386 79.5517 31.181C80.3214 32.0089 81.3454 32.4156 82.6236 32.401C83.8289 32.4156 84.8966 32.0016 85.8259 31.1592C86.77 30.3169 87.2421 29.0823 87.2421 27.4557Z" fill="black"/>
</g>
<defs>
<clipPath id="clip0_1_83">
<rect width="94" height="38.1437" fill="white"/>
</clipPath>
</defs>
</svg>
