<svg width="12" height="12" viewBox="0 0 12 12" fill="none" xmlns="http://www.w3.org/2000/svg">
<path fill-rule="evenodd" clip-rule="evenodd" d="M1.05521 8.81453C1.97365 10.0622 3.1841 10.805 4.68656 11.043C6.18902 11.2809 7.55885 10.9468 8.79615 10.0406C10.0552 9.13771 10.805 7.92666 11.0457 6.4073C11.2863 4.88793 10.9456 3.51609 10.0234 2.29179C9.12674 1.04754 7.9272 0.306447 6.42475 0.0684812C4.92229 -0.169485 3.54153 0.162934 2.2825 1.06574C1.04893 1.94861 0.311825 3.14974 0.0711812 4.66911C-0.169463 6.18848 0.158553 7.57024 1.05521 8.81453ZM7.33226 1.79703C7.79049 2.42773 7.65068 3.3105 7.01997 3.76873L6.8887 3.86411L7.75051 5.05027L8.85557 4.24743C9.3048 4.86576 9.17918 5.72636 8.57982 6.19168L8.90702 6.64211C9.13616 6.95746 9.06626 7.39884 8.75088 7.62796C8.43558 7.85709 7.99415 7.78717 7.76505 7.47182L7.43822 7.02198L6.21827 7.90832L6.64932 8.5016C6.87843 8.81698 6.80853 9.25833 6.49317 9.48748C6.17781 9.71662 5.73643 9.64671 5.50732 9.33133L5.07626 8.73807L4.44128 9.19935C4.12592 9.4285 3.68454 9.35859 3.45543 9.04321C3.2263 8.72791 3.29621 8.28648 3.61156 8.05742L4.24656 7.59604L3.38476 6.40987L2.87516 6.78011C2.55981 7.00924 2.11843 6.93933 1.88931 6.62397C1.66019 6.30861 1.7301 5.86723 2.04546 5.63812L2.55505 5.26787L2.49594 5.18652C2.0377 4.55581 2.17752 3.67304 2.80823 3.21481L3.69705 4.43817L4.917 3.55182L4.90325 3.53289C4.44501 2.90219 4.58483 2.01942 5.21554 1.56118L6.059 2.72211L7.33226 1.79703ZM4.52676 5.58016L5.74671 4.69381L6.60851 5.87998L5.38855 6.76633L4.52676 5.58016Z" fill="#7B68EE"/>
</svg>
