<svg width="14781" height="4964" viewBox="0 0 14781 4964" fill="none" xmlns="http://www.w3.org/2000/svg">
<g clip-path="url(#clip0_611_1056)">
<g clip-path="url(#clip1_611_1056)">
<path fill-rule="evenodd" clip-rule="evenodd" d="M165.922 1609.06C310.341 1805.25 500.68 1922.06 736.933 1959.48C973.186 1996.9 1188.59 1944.36 1383.14 1801.85C1581.12 1659.88 1699.03 1469.45 1736.87 1230.53C1774.71 991.616 1721.13 775.897 1576.13 583.379C1435.13 387.725 1246.51 271.19 1010.25 233.77C774 196.351 556.883 248.623 358.907 390.587C164.935 529.416 49.029 718.29 11.1891 957.207C-26.6509 1196.12 24.9278 1413.4 165.922 1609.06ZM1152.96 505.58C1225.01 604.757 1203.02 743.569 1103.85 815.625L1083.21 830.622L1218.72 1017.14L1392.49 890.898C1463.13 988.13 1443.37 1123.46 1349.13 1196.63L1400.58 1267.46C1436.61 1317.04 1425.62 1386.45 1376.02 1422.48C1326.45 1458.51 1257.03 1447.51 1221.01 1397.93L1169.62 1327.19L977.786 1466.56L1045.57 1559.86C1081.59 1609.45 1070.6 1678.85 1021.01 1714.88C971.425 1750.91 902.02 1739.92 865.993 1690.33L798.211 1597.04L698.364 1669.58C648.775 1705.61 579.37 1694.62 543.344 1645.02C507.315 1595.44 518.309 1526.03 567.895 1490.01L667.745 1417.46L532.232 1230.94L452.1 1289.16C402.513 1325.19 333.108 1314.19 297.081 1264.6C261.053 1215.01 272.045 1145.61 321.633 1109.58L401.764 1051.36L392.47 1038.57C320.414 939.39 342.399 800.578 441.576 728.522L581.338 920.892L773.169 781.516L771.007 778.54C698.951 679.363 720.936 540.551 820.112 468.494L952.741 651.047L1152.96 505.58ZM711.805 1100.47L903.636 961.091L1039.15 1147.61L847.317 1286.99L711.805 1100.47Z" fill="#CEB5FF"/>
<path d="M344.459 6167.56V2337.57H1406.43V6167.56H344.459Z" fill="white"/>
<path d="M3317.95 3954.54V6167.58H2255.98V2337.59H3300.82V3019.32H3338.51C3425.29 2795.5 3563.46 2618.5 3753.01 2488.34C3942.57 2355.86 4178.94 2289.64 4462.14 2289.64C4861.79 2289.64 5181.52 2418.68 5421.32 2676.75C5663.4 2932.54 5784.45 3284.24 5784.45 3731.88V6167.58H4722.48V3920.29C4722.48 3685.06 4661.96 3501.21 4540.93 3368.75C4422.16 3236.28 4256.59 3170.05 4044.2 3170.05C3829.52 3170.05 3654.82 3239.7 3520.06 3379.02C3385.33 3516.05 3317.95 3707.9 3317.95 3954.54Z" fill="white"/>
<path d="M6884.1 6167.55V3139.19H6346.26V2337.57H6884.1V2060.08C6884.1 1646.71 7002.85 1337.25 7240.37 1131.7C7480.17 926.16 7779.34 823.387 8137.89 823.387C8302.33 823.387 8451.92 837.09 8586.66 864.496C8723.69 889.619 8824.18 911.315 8888.12 929.585L8699.71 1724.36C8658.59 1712.94 8608.36 1701.52 8548.97 1690.11C8489.6 1678.68 8426.8 1672.97 8360.57 1672.97C8205.27 1672.97 8095.65 1709.51 8031.7 1782.6C7970.04 1853.4 7939.21 1953.89 7939.21 2084.06V2337.57H8703.13V3139.19H7939.21V6167.55H6884.1Z" fill="white"/>
<path d="M10416 1063.19V6167.55H9354.02V1063.19H10416Z" fill="white"/>
<path d="M13718.3 4540.33V2337.57H14780.4V6167.56H13759.4V5472.13H13718.3C13633.9 5695.95 13491.1 5876.37 13290.1 6013.4C13091.5 6150.42 12848.2 6217.8 12560.5 6215.52C12174.5 6217.8 11861.6 6091.05 11621.8 5835.26C11384.3 5577.19 11265.5 5224.34 11265.5 4776.7V2337.57H12327.5V4591.72C12327.5 4815.53 12388 4993.66 12509.1 5126.13C12630.1 5256.31 12791.1 5320.26 12992.1 5317.97C13181.6 5320.26 13349.5 5255.17 13495.7 5122.71C13644.1 4990.25 13718.3 4796.12 13718.3 4540.33Z" fill="white"/>
</g>
</g>
<defs>
<clipPath id="clip0_611_1056">
<rect width="14781" height="4964" fill="white"/>
</clipPath>
<clipPath id="clip1_611_1056">
<rect width="14781" height="5998" fill="white" transform="translate(0 223)"/>
</clipPath>
</defs>
</svg>
