<svg width="181" height="181" viewBox="0 0 181 181" fill="none" xmlns="http://www.w3.org/2000/svg">
<rect x="0.511364" y="0.511364" width="179.341" height="179.341" rx="19.9432" fill="#FDFAFF"/>
<rect x="0.511364" y="0.511364" width="179.341" height="179.341" rx="19.9432" stroke="#D7B3FE" stroke-width="1.02273"/>
<g clip-path="url(#clip0_6385_7965)">
<path d="M172.182 8.18176H8.18164V172.182H172.182V8.18176Z" fill="white"/>
<mask id="mask0_6385_7965" style="mask-type:luminance" maskUnits="userSpaceOnUse" x="14" y="14" width="153" height="153">
<path d="M14.085 66.5658H19.333V63.9418C19.333 63.2459 19.0565 62.5784 18.5644 62.0863C18.0723 61.5943 17.4049 61.3178 16.709 61.3178C16.013 61.3178 15.3456 61.5943 14.8535 62.0863C14.3614 62.5784 14.085 63.2459 14.085 63.9418" fill="white"/>
<path d="M19.333 66.5658H14.085V71.8138H19.333V66.5658Z" fill="white"/>
<path d="M19.333 71.8138H14.085V77.0618H19.333V71.8138Z" fill="white"/>
<path d="M19.333 77.0618H14.085V82.3098H19.333V77.0618Z" fill="white"/>
<path d="M19.333 82.3098H14.085V87.5578H19.333V82.3098Z" fill="white"/>
<path d="M19.333 87.5579H14.085V92.8059H19.333V87.5579Z" fill="white"/>
<path d="M19.333 92.8058H14.085V98.0538H19.333V92.8058Z" fill="white"/>
<path d="M19.333 103.302V98.0538H14.085V100.678C14.085 101.374 14.3615 102.041 14.8536 102.533C15.3457 103.025 16.0131 103.302 16.709 103.302" fill="white"/>
<path d="M14.085 119.046H19.333V113.798H16.709C16.013 113.798 15.3456 114.074 14.8535 114.566C14.3614 115.058 14.085 115.726 14.085 116.422" fill="white"/>
<path d="M19.333 119.046H14.085V121.67C14.085 122.366 14.3615 123.033 14.8536 123.525C15.3457 124.017 16.0131 124.294 16.709 124.294C17.4049 124.294 18.0724 124.017 18.5645 123.525C19.0566 123.033 19.333 122.366 19.333 121.67" fill="white"/>
<path d="M19.333 77.0618V82.3098H21.957C22.6529 82.3098 23.3204 82.0333 23.8125 81.5412C24.3046 81.0491 24.581 80.3817 24.581 79.6858C24.581 78.9898 24.3046 78.3224 23.8125 77.8303C23.3204 77.3382 22.6529 77.0618 21.957 77.0618" fill="white"/>
<path d="M24.581 98.0538H19.333V103.302H24.581V98.0538Z" fill="white"/>
<path d="M19.333 113.798V119.046H21.957C22.6529 119.046 23.3204 118.769 23.8125 118.277C24.3046 117.785 24.581 117.118 24.581 116.422C24.581 115.726 24.3046 115.058 23.8125 114.566C23.3204 114.074 22.6529 113.798 21.957 113.798" fill="white"/>
<path d="M24.5811 61.3179H29.8291V58.6939C29.8291 57.9979 29.5526 57.3305 29.0605 56.8384C28.5684 56.3463 27.901 56.0699 27.2051 56.0699C26.5091 56.0699 25.8417 56.3463 25.3496 56.8384C24.8575 57.3305 24.5811 57.9979 24.5811 58.6939" fill="white"/>
<path d="M29.8291 61.3179H24.5811V66.5659H29.8291V61.3179Z" fill="white"/>
<path d="M29.8291 66.5658H24.5811V71.8138H29.8291V66.5658Z" fill="white"/>
<path d="M29.8291 77.0618V71.8138H24.5811V74.4378C24.5811 75.1337 24.8576 75.8011 25.3497 76.2932C25.8417 76.7853 26.5092 77.0618 27.2051 77.0618" fill="white"/>
<path d="M24.5811 92.8058H29.8291V87.5578H27.2051C26.5091 87.5578 25.8417 87.8342 25.3496 88.3263C24.8575 88.8184 24.5811 89.4859 24.5811 90.1818" fill="white"/>
<path d="M29.8291 92.8058H24.5811V98.0538H29.8291V92.8058Z" fill="white"/>
<path d="M29.8291 98.0538H24.5811V103.302H29.8291V98.0538Z" fill="white"/>
<path d="M29.8291 103.302H24.5811V108.55H29.8291V103.302Z" fill="white"/>
<path d="M29.8291 113.798V108.55H24.5811V111.174C24.5811 111.87 24.8576 112.537 25.3497 113.029C25.8417 113.521 26.5092 113.798 27.2051 113.798" fill="white"/>
<path d="M35.0771 61.3179H29.8291V66.5659H35.0771V61.3179Z" fill="white"/>
<path d="M35.0771 66.5658H29.8291V71.8138H35.0771V66.5658Z" fill="white"/>
<path d="M35.0771 71.8138H29.8291V77.0618H35.0771V71.8138Z" fill="white"/>
<path d="M29.8291 87.5579H35.0771V84.9339C35.0771 84.2379 34.8006 83.5705 34.3086 83.0784C33.8165 82.5863 33.149 82.3099 32.4531 82.3099C31.7572 82.3099 31.0897 82.5863 30.5977 83.0784C30.1056 83.5705 29.8291 84.2379 29.8291 84.9339" fill="white"/>
<path d="M35.0771 87.5579H29.8291V92.8059H35.0771V87.5579Z" fill="white"/>
<path d="M35.0771 92.8058H29.8291V98.0538H35.0771V92.8058Z" fill="white"/>
<path d="M35.0771 108.55H29.8291V113.798H35.0771V108.55Z" fill="white"/>
<path d="M35.0771 61.3179H40.3251V56.0699H37.7011C37.0052 56.0699 36.3378 56.3463 35.8457 56.8384C35.3536 57.3305 35.0771 57.9979 35.0771 58.6939" fill="white"/>
<path d="M40.3251 61.3179H35.0771V66.5659H40.3251V61.3179Z" fill="white"/>
<path d="M35.0771 71.8138V77.0618H40.3251V74.4378C40.3251 73.7419 40.0487 73.0745 39.5566 72.5824C39.0645 72.0903 38.3971 71.8138 37.7011 71.8138" fill="white"/>
<path d="M40.3252 82.3098V77.0618H35.0772V79.6858C35.0772 80.3817 35.3537 81.0492 35.8457 81.5413C36.3378 82.0334 37.0053 82.3098 37.7012 82.3098" fill="white"/>
<path d="M35.0771 92.8058V98.0538H37.7011C38.3971 98.0538 39.0645 97.7773 39.5566 97.2852C40.0487 96.7931 40.3251 96.1257 40.3251 95.4298C40.3251 94.7339 40.0487 94.0664 39.5566 93.5743C39.0645 93.0822 38.3971 92.8058 37.7011 92.8058" fill="white"/>
<path d="M35.0771 108.55H40.3251V103.302H37.7011C37.0052 103.302 36.3378 103.578 35.8457 104.07C35.3536 104.562 35.0771 105.23 35.0771 105.926" fill="white"/>
<path d="M40.3252 108.55H35.0772V113.798H37.7012C38.3971 113.798 39.0646 113.521 39.5566 113.029C40.0487 112.537 40.3252 111.87 40.3252 111.174" fill="white"/>
<path d="M45.5732 56.0698H40.3252V61.3178H45.5732V56.0698Z" fill="white"/>
<path d="M45.5732 61.3179H40.3252V66.5659H45.5732V61.3179Z" fill="white"/>
<path d="M45.5732 71.8138V66.5658H40.3252V69.1898C40.3252 69.8858 40.6017 70.5532 41.0938 71.0453C41.5859 71.5374 42.2533 71.8138 42.9492 71.8138" fill="white"/>
<path d="M45.5732 77.0618H40.3252V82.3098H45.5732V77.0618Z" fill="white"/>
<path d="M40.3252 103.302V108.55H42.9492C43.6451 108.55 44.3125 108.273 44.8046 107.781C45.2967 107.289 45.5732 106.622 45.5732 105.926C45.5732 105.23 45.2967 104.562 44.8046 104.07C44.3125 103.578 43.6451 103.302 42.9492 103.302" fill="white"/>
<path d="M40.3252 119.046H45.5732V116.422C45.5732 115.726 45.2967 115.058 44.8046 114.566C44.3126 114.074 43.6451 113.798 42.9492 113.798C42.2533 113.798 41.5858 114.074 41.0937 114.566C40.6016 115.058 40.3252 115.726 40.3252 116.422" fill="white"/>
<path d="M45.5732 124.294V119.046H40.3252V121.67C40.3252 122.366 40.6017 123.033 41.0938 123.525C41.5859 124.017 42.2533 124.294 42.9492 124.294" fill="white"/>
<path d="M45.5732 56.0698V61.3178H48.1972C48.8932 61.3178 49.5606 61.0414 50.0527 60.5493C50.5448 60.0572 50.8212 59.3898 50.8212 58.6938C50.8212 57.9979 50.5448 57.3305 50.0527 56.8384C49.5606 56.3463 48.8932 56.0698 48.1972 56.0698" fill="white"/>
<path d="M45.5732 66.5658V71.8138H48.1972C48.8932 71.8138 49.5606 71.5373 50.0527 71.0452C50.5448 70.5532 50.8212 69.8857 50.8212 69.1898C50.8212 68.4939 50.5448 67.8264 50.0527 67.3343C49.5606 66.8423 48.8932 66.5658 48.1972 66.5658" fill="white"/>
<path d="M50.8212 77.0618H45.5732V82.3098H50.8212V77.0618Z" fill="white"/>
<path d="M50.8213 92.8058V87.5578H48.1973C47.5014 87.5578 46.8339 87.8342 46.3418 88.3263C45.8497 88.8184 45.5733 89.4859 45.5733 90.1818C45.5733 90.8777 45.8497 91.5451 46.3418 92.0372C46.8339 92.5293 47.5014 92.8058 48.1973 92.8058" fill="white"/>
<path d="M50.8213 103.302V98.0538H48.1973C47.5014 98.0538 46.8339 98.3302 46.3418 98.8223C45.8497 99.3144 45.5733 99.9818 45.5733 100.678C45.5733 101.374 45.8497 102.041 46.3418 102.533C46.8339 103.025 47.5014 103.302 48.1973 103.302" fill="white"/>
<path d="M48.1972 113.798C49.6464 113.798 50.8212 112.623 50.8212 111.174C50.8212 109.725 49.6464 108.55 48.1972 108.55C46.748 108.55 45.5732 109.725 45.5732 111.174C45.5732 112.623 46.748 113.798 48.1972 113.798Z" fill="white"/>
<path d="M50.8212 119.046H45.5732V124.294H50.8212V119.046Z" fill="white"/>
<path d="M56.0693 66.5658V61.3178H53.4453C52.7494 61.3178 52.082 61.5943 51.5899 62.0863C51.0978 62.5784 50.8213 63.2459 50.8213 63.9418C50.8213 64.6377 51.0978 65.3052 51.5899 65.7972C52.082 66.2893 52.7494 66.5658 53.4453 66.5658" fill="white"/>
<path d="M50.8213 77.0618V82.3098H56.0693V79.6858C56.0693 78.9898 55.7928 78.3224 55.3007 77.8303C54.8086 77.3382 54.1412 77.0618 53.4453 77.0618" fill="white"/>
<path d="M56.0693 82.3098H50.8213V87.5578H56.0693V82.3098Z" fill="white"/>
<path d="M56.0693 87.5579H50.8213V92.8059H56.0693V87.5579Z" fill="white"/>
<path d="M50.8213 98.0538V103.302H53.4453C54.1412 103.302 54.8086 103.025 55.3007 102.533C55.7928 102.041 56.0693 101.374 56.0693 100.678C56.0693 99.9819 55.7928 99.3145 55.3007 98.8224C54.8086 98.3303 54.1412 98.0538 53.4453 98.0538" fill="white"/>
<path d="M50.8213 119.046H56.0693V116.422C56.0693 115.726 55.7928 115.058 55.3007 114.566C54.8086 114.074 54.1412 113.798 53.4453 113.798C52.7494 113.798 52.0819 114.074 51.5898 114.566C51.0977 115.058 50.8213 115.726 50.8213 116.422" fill="white"/>
<path d="M56.0693 119.046H50.8213V124.294H56.0693V119.046Z" fill="white"/>
<path d="M58.6933 24.5819C60.1425 24.5819 61.3173 23.4071 61.3173 21.9579C61.3173 20.5087 60.1425 19.3339 58.6933 19.3339C57.2441 19.3339 56.0693 20.5087 56.0693 21.9579C56.0693 23.4071 57.2441 24.5819 58.6933 24.5819Z" fill="white"/>
<path d="M61.3174 40.3258V35.0778H58.6934C57.9975 35.0778 57.33 35.3543 56.8379 35.8464C56.3458 36.3385 56.0694 37.0059 56.0694 37.7018C56.0694 38.3977 56.3458 39.0652 56.8379 39.5573C57.33 40.0493 57.9975 40.3258 58.6934 40.3258" fill="white"/>
<path d="M58.6933 50.8219C60.1425 50.8219 61.3173 49.647 61.3173 48.1979C61.3173 46.7487 60.1425 45.5739 58.6933 45.5739C57.2441 45.5739 56.0693 46.7487 56.0693 48.1979C56.0693 49.647 57.2441 50.8219 58.6933 50.8219Z" fill="white"/>
<path d="M56.0693 61.3179H61.3173V56.0699H58.6933C57.9974 56.0699 57.33 56.3463 56.8379 56.8384C56.3458 57.3305 56.0693 57.9979 56.0693 58.6939" fill="white"/>
<path d="M61.3174 61.3179H56.0694V66.5659H58.6934C59.3893 66.5659 60.0567 66.2894 60.5488 65.7973C61.0409 65.3052 61.3174 64.6378 61.3174 63.9419" fill="white"/>
<path d="M58.6933 77.0618C60.1425 77.0618 61.3173 75.887 61.3173 74.4378C61.3173 72.9886 60.1425 71.8138 58.6933 71.8138C57.2441 71.8138 56.0693 72.9886 56.0693 74.4378C56.0693 75.887 57.2441 77.0618 58.6933 77.0618Z" fill="white"/>
<path d="M56.0693 87.5579V92.8059H61.3173V90.1819C61.3173 89.4859 61.0409 88.8185 60.5488 88.3264C60.0567 87.8343 59.3893 87.5579 58.6933 87.5579" fill="white"/>
<path d="M61.3174 98.0538V92.8058H56.0694V95.4298C56.0694 96.1258 56.3458 96.7932 56.8379 97.2853C57.33 97.7774 57.9975 98.0538 58.6934 98.0538" fill="white"/>
<path d="M56.0693 119.046V124.294H61.3173V121.67C61.3173 120.974 61.0409 120.306 60.5488 119.814C60.0567 119.322 59.3893 119.046 58.6933 119.046" fill="white"/>
<path d="M61.3174 124.294H56.0694V126.918C56.0694 127.614 56.3458 128.281 56.8379 128.773C57.33 129.265 57.9975 129.542 58.6934 129.542C59.3893 129.542 60.0567 129.265 60.5488 128.773C61.0409 128.281 61.3174 127.614 61.3174 126.918" fill="white"/>
<path d="M56.0693 140.038H61.3173V134.79H58.6933C57.9974 134.79 57.33 135.066 56.8379 135.558C56.3458 136.05 56.0693 136.718 56.0693 137.414" fill="white"/>
<path d="M61.3174 145.286V140.038H56.0694V142.662C56.0694 143.358 56.3458 144.025 56.8379 144.517C57.33 145.009 57.9975 145.286 58.6934 145.286" fill="white"/>
<path d="M58.6933 155.782C60.1425 155.782 61.3173 154.607 61.3173 153.158C61.3173 151.709 60.1425 150.534 58.6933 150.534C57.2441 150.534 56.0693 151.709 56.0693 153.158C56.0693 154.607 57.2441 155.782 58.6933 155.782Z" fill="white"/>
<path d="M63.9414 19.3338C65.3906 19.3338 66.5654 18.159 66.5654 16.7098C66.5654 15.2606 65.3906 14.0858 63.9414 14.0858C62.4922 14.0858 61.3174 15.2606 61.3174 16.7098C61.3174 18.159 62.4922 19.3338 63.9414 19.3338Z" fill="white"/>
<path d="M61.3174 29.8298H66.5654V27.2058C66.5654 26.5099 66.2889 25.8425 65.7968 25.3504C65.3047 24.8583 64.6373 24.5818 63.9414 24.5818C63.2455 24.5818 62.578 24.8583 62.0859 25.3504C61.5938 25.8425 61.3174 26.5099 61.3174 27.2058" fill="white"/>
<path d="M66.5654 29.8298H61.3174V35.0778H66.5654V29.8298Z" fill="white"/>
<path d="M66.5654 35.0778H61.3174V40.3258H66.5654V35.0778Z" fill="white"/>
<path d="M66.5654 45.5739V40.3259H61.3174V42.9499C61.3174 43.6458 61.5939 44.3132 62.086 44.8053C62.5781 45.2974 63.2455 45.5739 63.9414 45.5739" fill="white"/>
<path d="M66.5654 56.0698H61.3174V61.3178H66.5654V56.0698Z" fill="white"/>
<path d="M66.5654 92.8058H61.3174V98.0538H66.5654V92.8058Z" fill="white"/>
<path d="M61.3174 108.55H66.5654V103.302H63.9414C63.2455 103.302 62.578 103.578 62.0859 104.07C61.5938 104.562 61.3174 105.23 61.3174 105.926" fill="white"/>
<path d="M66.5654 108.55H61.3174V113.798H66.5654V108.55Z" fill="white"/>
<path d="M66.5654 119.046V113.798H61.3174V116.422C61.3174 117.118 61.5939 117.785 62.086 118.277C62.5781 118.769 63.2455 119.046 63.9414 119.046" fill="white"/>
<path d="M61.3174 134.79H66.5654V132.166C66.5654 131.47 66.2889 130.802 65.7968 130.31C65.3047 129.818 64.6373 129.542 63.9414 129.542C63.2455 129.542 62.578 129.818 62.0859 130.31C61.5938 130.802 61.3174 131.47 61.3174 132.166" fill="white"/>
<path d="M66.5654 134.79H61.3174V140.038H66.5654V134.79Z" fill="white"/>
<path d="M66.5654 140.038H61.3174V145.286H66.5654V140.038Z" fill="white"/>
<path d="M61.3174 161.03H66.5654V158.406C66.5654 157.71 66.2889 157.042 65.7968 156.55C65.3047 156.058 64.6373 155.782 63.9414 155.782C63.2455 155.782 62.578 156.058 62.0859 156.55C61.5938 157.042 61.3174 157.71 61.3174 158.406" fill="white"/>
<path d="M66.5654 166.278V161.03H61.3174V163.654C61.3174 164.35 61.5939 165.017 62.086 165.509C62.5781 166.001 63.2455 166.278 63.9414 166.278" fill="white"/>
<path d="M71.8134 29.8298H66.5654V35.0778H71.8134V29.8298Z" fill="white"/>
<path d="M71.8134 40.3258H66.5654V45.5738H71.8134V40.3258Z" fill="white"/>
<path d="M71.8125 45.5739H66.5645V48.1979C66.5645 48.8938 66.841 49.5612 67.3331 50.0533C67.8251 50.5454 68.4926 50.8219 69.1885 50.8219C69.8844 50.8219 70.5519 50.5454 71.0439 50.0533C71.536 49.5612 71.8125 48.8938 71.8125 48.1979" fill="white"/>
<path d="M71.8134 56.0698H66.5654V61.3178H71.8134V56.0698Z" fill="white"/>
<path d="M71.8125 61.3179H66.5645V63.9419C66.5645 64.6378 66.841 65.3052 67.333 65.7973C67.8251 66.2894 68.4926 66.5659 69.1885 66.5659C69.8844 66.5659 70.5519 66.2894 71.044 65.7973C71.536 65.3052 71.8125 64.6378 71.8125 63.9419" fill="white"/>
<path d="M71.8125 77.0618V71.8138H69.1885C68.4926 71.8138 67.8251 72.0902 67.333 72.5823C66.841 73.0744 66.5645 73.7418 66.5645 74.4378C66.5645 75.1337 66.841 75.8011 67.333 76.2932C67.8251 76.7853 68.4926 77.0618 69.1885 77.0618" fill="white"/>
<path d="M66.5654 87.5579H71.8134V82.3099H69.1894C68.4935 82.3099 67.8261 82.5863 67.334 83.0784C66.8419 83.5705 66.5654 84.2379 66.5654 84.9339" fill="white"/>
<path d="M71.8134 87.5579H66.5654V92.8059H71.8134V87.5579Z" fill="white"/>
<path d="M71.8134 92.8058H66.5654V98.0538H71.8134V92.8058Z" fill="white"/>
<path d="M71.8134 98.0538H66.5654V103.302H71.8134V98.0538Z" fill="white"/>
<path d="M71.8134 103.302H66.5654V108.55H71.8134V103.302Z" fill="white"/>
<path d="M71.8134 108.55H66.5654V113.798H71.8134V108.55Z" fill="white"/>
<path d="M71.8134 113.798H66.5654V119.046H71.8134V113.798Z" fill="white"/>
<path d="M71.8125 129.542V124.294H69.1885C68.4926 124.294 67.8251 124.57 67.333 125.062C66.841 125.555 66.5645 126.222 66.5645 126.918C66.5645 127.614 66.841 128.281 67.333 128.773C67.8251 129.265 68.4926 129.542 69.1885 129.542" fill="white"/>
<path d="M66.5654 140.038V145.286H71.8134V142.662C71.8134 141.966 71.537 141.298 71.0449 140.806C70.5528 140.314 69.8854 140.038 69.1894 140.038" fill="white"/>
<path d="M71.8134 145.286H66.5654V150.534H71.8134V145.286Z" fill="white"/>
<path d="M71.8125 150.534H66.5645V153.158C66.5645 153.854 66.841 154.521 67.333 155.013C67.8251 155.505 68.4926 155.782 69.1885 155.782C69.8844 155.782 70.5519 155.505 71.044 155.013C71.536 154.521 71.8125 153.854 71.8125 153.158" fill="white"/>
<path d="M71.8134 161.03H66.5654V166.278H71.8134V161.03Z" fill="white"/>
<path d="M71.8125 19.3339H77.0605V16.7099C77.0605 16.0139 76.784 15.3465 76.2919 14.8544C75.7999 14.3623 75.1324 14.0859 74.4365 14.0859C73.7406 14.0859 73.0731 14.3623 72.5811 14.8544C72.089 15.3465 71.8125 16.0139 71.8125 16.7099" fill="white"/>
<path d="M77.0605 19.3339H71.8125V24.5819H77.0605V19.3339Z" fill="white"/>
<path d="M77.0605 24.5818H71.8125V29.8298H77.0605V24.5818Z" fill="white"/>
<path d="M77.0605 29.8298H71.8125V35.0778H77.0605V29.8298Z" fill="white"/>
<path d="M77.0605 35.0778H71.8125V40.3258H77.0605V35.0778Z" fill="white"/>
<path d="M77.0605 40.3258H71.8125V45.5738H74.4365C75.1325 45.5738 75.7999 45.2974 76.292 44.8053C76.7841 44.3132 77.0605 43.6457 77.0605 42.9498" fill="white"/>
<path d="M71.8125 56.0698V61.3178H74.4365C75.1324 61.3178 75.7999 61.0414 76.292 60.5493C76.784 60.0572 77.0605 59.3898 77.0605 58.6938C77.0605 57.9979 76.784 57.3305 76.292 56.8384C75.7999 56.3463 75.1324 56.0698 74.4365 56.0698" fill="white"/>
<path d="M71.8125 71.8138H77.0605V66.5658H74.4365C73.7406 66.5658 73.0731 66.8423 72.581 67.3344C72.089 67.8265 71.8125 68.4939 71.8125 69.1898" fill="white"/>
<path d="M77.0605 71.8138H71.8125V77.0618H74.4365C75.1325 77.0618 75.7999 76.7854 76.292 76.2933C76.7841 75.8012 77.0605 75.1338 77.0605 74.4378" fill="white"/>
<path d="M77.0605 82.3098H71.8125V87.5578H77.0605V82.3098Z" fill="white"/>
<path d="M77.0605 87.5579H71.8125V92.8059H77.0605V87.5579Z" fill="white"/>
<path d="M77.0605 92.8058H71.8125V98.0538H77.0605V92.8058Z" fill="white"/>
<path d="M77.0605 98.0538H71.8125V103.302H77.0605V98.0538Z" fill="white"/>
<path d="M77.0605 103.302H71.8125V108.55H77.0605V103.302Z" fill="white"/>
<path d="M71.8125 113.798V119.046H77.0605V116.422C77.0605 115.726 76.784 115.058 76.292 114.566C75.7999 114.074 75.1324 113.798 74.4365 113.798" fill="white"/>
<path d="M77.0605 119.046H71.8125V124.294H77.0605V119.046Z" fill="white"/>
<path d="M77.0605 124.294H71.8125V129.542H74.4365C75.1325 129.542 75.7999 129.265 76.292 128.773C76.7841 128.281 77.0605 127.614 77.0605 126.918" fill="white"/>
<path d="M71.8125 161.03H77.0605V158.406C77.0605 157.71 76.784 157.042 76.292 156.55C75.7999 156.058 75.1324 155.782 74.4365 155.782C73.7406 155.782 73.0731 156.058 72.581 156.55C72.089 157.042 71.8125 157.71 71.8125 158.406" fill="white"/>
<path d="M77.0605 161.03H71.8125V166.278H77.0605V161.03Z" fill="white"/>
<path d="M77.0605 24.5818V29.8298H79.6845C80.3805 29.8298 81.0479 29.5533 81.54 29.0612C82.0321 28.5691 82.3085 27.9017 82.3085 27.2058C82.3085 26.5099 82.0321 25.8424 81.54 25.3503C81.0479 24.8582 80.3805 24.5818 79.6845 24.5818" fill="white"/>
<path d="M77.0605 50.8218H82.3085V48.1978C82.3085 47.5018 82.0321 46.8344 81.54 46.3423C81.0479 45.8502 80.3805 45.5738 79.6845 45.5738C78.9886 45.5738 78.3212 45.8502 77.8291 46.3423C77.337 46.8344 77.0605 47.5018 77.0605 48.1978" fill="white"/>
<path d="M82.3086 50.8218H77.0606V53.4458C77.0606 54.1417 77.337 54.8091 77.8291 55.3012C78.3212 55.7933 78.9887 56.0698 79.6846 56.0698C80.3805 56.0698 81.0479 55.7933 81.54 55.3012C82.0321 54.8091 82.3086 54.1417 82.3086 53.4458" fill="white"/>
<path d="M77.0605 66.5658V71.8138H79.6845C80.3805 71.8138 81.0479 71.5373 81.54 71.0452C82.0321 70.5532 82.3085 69.8857 82.3085 69.1898C82.3085 68.4939 82.0321 67.8264 81.54 67.3343C81.0479 66.8423 80.3805 66.5658 79.6845 66.5658" fill="white"/>
<path d="M82.3085 82.3098H77.0605V87.5578H82.3085V82.3098Z" fill="white"/>
<path d="M82.3085 92.8058H77.0605V98.0538H82.3085V92.8058Z" fill="white"/>
<path d="M77.0605 103.302V108.55H79.6845C80.3805 108.55 81.0479 108.273 81.54 107.781C82.0321 107.289 82.3085 106.622 82.3085 105.926C82.3085 105.23 82.0321 104.562 81.54 104.07C81.0479 103.578 80.3805 103.302 79.6845 103.302" fill="white"/>
<path d="M77.0605 119.046V124.294H79.6845C80.3805 124.294 81.0479 124.017 81.54 123.525C82.0321 123.033 82.3085 122.366 82.3085 121.67C82.3085 120.974 82.0321 120.306 81.54 119.814C81.0479 119.322 80.3805 119.046 79.6845 119.046" fill="white"/>
<path d="M79.6845 140.038C81.1337 140.038 82.3085 138.863 82.3085 137.414C82.3085 135.965 81.1337 134.79 79.6845 134.79C78.2354 134.79 77.0605 135.965 77.0605 137.414C77.0605 138.863 78.2354 140.038 79.6845 140.038Z" fill="white"/>
<path d="M79.6845 150.534C81.1337 150.534 82.3085 149.359 82.3085 147.91C82.3085 146.461 81.1337 145.286 79.6845 145.286C78.2354 145.286 77.0605 146.461 77.0605 147.91C77.0605 149.359 78.2354 150.534 79.6845 150.534Z" fill="white"/>
<path d="M82.3085 161.03H77.0605V166.278H82.3085V161.03Z" fill="white"/>
<path d="M82.3086 19.3339H87.5566V14.0859H84.9326C84.2367 14.0859 83.5692 14.3623 83.0771 14.8544C82.585 15.3465 82.3086 16.0139 82.3086 16.7099" fill="white"/>
<path d="M87.5566 24.5818V19.3338H82.3086V21.9578C82.3086 22.6537 82.5851 23.3211 83.0772 23.8132C83.5693 24.3053 84.2367 24.5818 84.9326 24.5818" fill="white"/>
<path d="M87.5566 35.0778V29.8298H84.9326C84.2367 29.8298 83.5693 30.1062 83.0772 30.5983C82.5851 31.0904 82.3086 31.7578 82.3086 32.4538C82.3086 33.1497 82.5851 33.8171 83.0772 34.3092C83.5693 34.8013 84.2367 35.0778 84.9326 35.0778" fill="white"/>
<path d="M84.9326 45.5738C86.3818 45.5738 87.5566 44.399 87.5566 42.9498C87.5566 41.5006 86.3818 40.3258 84.9326 40.3258C83.4834 40.3258 82.3086 41.5006 82.3086 42.9498C82.3086 44.399 83.4834 45.5738 84.9326 45.5738Z" fill="white"/>
<path d="M87.5566 61.3179V56.0699H84.9326C84.2367 56.0699 83.5693 56.3463 83.0772 56.8384C82.5851 57.3305 82.3086 57.9979 82.3086 58.6939C82.3086 59.3898 82.5851 60.0572 83.0772 60.5493C83.5693 61.0414 84.2367 61.3179 84.9326 61.3179" fill="white"/>
<path d="M87.5566 77.0618V71.8138H84.9326C84.2367 71.8138 83.5693 72.0902 83.0772 72.5823C82.5851 73.0744 82.3086 73.7418 82.3086 74.4378C82.3086 75.1337 82.5851 75.8011 83.0772 76.2932C83.5693 76.7853 84.2367 77.0618 84.9326 77.0618" fill="white"/>
<path d="M87.5566 82.3098H82.3086V87.5578H87.5566V82.3098Z" fill="white"/>
<path d="M87.5566 87.5579H82.3086V92.8059H87.5566V87.5579Z" fill="white"/>
<path d="M87.5566 92.8058H82.3086V98.0538H84.9326C85.6286 98.0538 86.296 97.7773 86.7881 97.2852C87.2802 96.7931 87.5566 96.1257 87.5566 95.4298" fill="white"/>
<path d="M84.9326 113.798C86.3818 113.798 87.5566 112.623 87.5566 111.174C87.5566 109.725 86.3818 108.55 84.9326 108.55C83.4834 108.55 82.3086 109.725 82.3086 111.174C82.3086 112.623 83.4834 113.798 84.9326 113.798Z" fill="white"/>
<path d="M87.5566 134.79V129.542H84.9326C84.2367 129.542 83.5693 129.818 83.0772 130.31C82.5851 130.802 82.3086 131.47 82.3086 132.166C82.3086 132.862 82.5851 133.529 83.0772 134.021C83.5693 134.513 84.2367 134.79 84.9326 134.79" fill="white"/>
<path d="M87.5566 145.286V140.038H84.9326C84.2367 140.038 83.5693 140.314 83.0772 140.806C82.5851 141.298 82.3086 141.966 82.3086 142.662C82.3086 143.358 82.5851 144.025 83.0772 144.517C83.5693 145.009 84.2367 145.286 84.9326 145.286" fill="white"/>
<path d="M84.9326 155.782C86.3818 155.782 87.5566 154.607 87.5566 153.158C87.5566 151.709 86.3818 150.534 84.9326 150.534C83.4834 150.534 82.3086 151.709 82.3086 153.158C82.3086 154.607 83.4834 155.782 84.9326 155.782Z" fill="white"/>
<path d="M87.5566 161.03H82.3086V166.278H87.5566V161.03Z" fill="white"/>
<path d="M92.8046 14.0858H87.5566V19.3338H92.8046V14.0858Z" fill="white"/>
<path d="M92.8046 19.3339H87.5566V24.5819H92.8046V19.3339Z" fill="white"/>
<path d="M92.8046 29.8298H87.5566V35.0778H92.8046V29.8298Z" fill="white"/>
<path d="M90.1806 50.8219C91.6298 50.8219 92.8046 49.647 92.8046 48.1979C92.8046 46.7487 91.6298 45.5739 90.1806 45.5739C88.7314 45.5739 87.5566 46.7487 87.5566 48.1979C87.5566 49.647 88.7314 50.8219 90.1806 50.8219Z" fill="white"/>
<path d="M92.8046 56.0698H87.5566V61.3178H92.8046V56.0698Z" fill="white"/>
<path d="M87.5566 71.8138H92.8046V66.5658H90.1806C89.4847 66.5658 88.8173 66.8423 88.3252 67.3344C87.8331 67.8265 87.5566 68.4939 87.5566 69.1898" fill="white"/>
<path d="M92.8046 71.8138H87.5566V77.0618H92.8046V71.8138Z" fill="white"/>
<path d="M92.8046 77.0618H87.5566V82.3098H92.8046V77.0618Z" fill="white"/>
<path d="M92.8046 82.3098H87.5566V87.5578H92.8046V82.3098Z" fill="white"/>
<path d="M92.8047 108.55V103.302H90.1807C89.4848 103.302 88.8173 103.578 88.3252 104.07C87.8331 104.562 87.5567 105.23 87.5567 105.926C87.5567 106.622 87.8331 107.289 88.3252 107.781C88.8173 108.273 89.4848 108.55 90.1807 108.55" fill="white"/>
<path d="M87.5566 124.294H92.8046V119.046H90.1806C89.4847 119.046 88.8173 119.322 88.3252 119.814C87.8331 120.306 87.5566 120.974 87.5566 121.67" fill="white"/>
<path d="M92.8046 124.294H87.5566V129.542H92.8046V124.294Z" fill="white"/>
<path d="M92.8046 129.542H87.5566V134.79H92.8046V129.542Z" fill="white"/>
<path d="M87.5566 140.038V145.286H90.1806C90.8766 145.286 91.544 145.009 92.0361 144.517C92.5282 144.025 92.8046 143.358 92.8046 142.662C92.8046 141.966 92.5282 141.298 92.0361 140.806C91.544 140.314 90.8766 140.038 90.1806 140.038" fill="white"/>
<path d="M92.8046 161.03H87.5566V166.278H92.8046V161.03Z" fill="white"/>
<path d="M98.0527 14.0858H92.8047V19.3338H98.0527V14.0858Z" fill="white"/>
<path d="M98.0527 19.3339H92.8047V24.5819H98.0527V19.3339Z" fill="white"/>
<path d="M98.0527 24.5818H92.8047V29.8298H98.0527V24.5818Z" fill="white"/>
<path d="M98.0527 29.8298H92.8047V35.0778H95.4287C96.1247 35.0778 96.7921 34.8014 97.2842 34.3093C97.7763 33.8172 98.0527 33.1498 98.0527 32.4538" fill="white"/>
<path d="M92.8047 56.0698H98.0527V53.4458C98.0527 52.7499 97.7762 52.0825 97.2841 51.5904C96.792 51.0983 96.1246 50.8218 95.4287 50.8218C94.7328 50.8218 94.0653 51.0983 93.5732 51.5904C93.0811 52.0825 92.8047 52.7499 92.8047 53.4458" fill="white"/>
<path d="M98.0527 56.0698H92.8047V61.3178H98.0527V56.0698Z" fill="white"/>
<path d="M98.0527 61.3179H92.8047V66.5659H98.0527V61.3179Z" fill="white"/>
<path d="M98.0527 66.5658H92.8047V71.8138H98.0527V66.5658Z" fill="white"/>
<path d="M98.0527 71.8138H92.8047V77.0618H98.0527V71.8138Z" fill="white"/>
<path d="M98.0527 77.0618H92.8047V82.3098H98.0527V77.0618Z" fill="white"/>
<path d="M98.0527 82.3098H92.8047V87.5578H98.0527V82.3098Z" fill="white"/>
<path d="M98.0527 87.5579H92.8047V90.1819C92.8047 90.8778 93.0812 91.5452 93.5733 92.0373C94.0654 92.5294 94.7328 92.8059 95.4287 92.8059C96.1247 92.8059 96.7921 92.5294 97.2842 92.0373C97.7763 91.5452 98.0527 90.8778 98.0527 90.1819" fill="white"/>
<path d="M92.8047 103.302H98.0527V100.678C98.0527 99.9818 97.7762 99.3144 97.2841 98.8223C96.792 98.3302 96.1246 98.0538 95.4287 98.0538C94.7328 98.0538 94.0653 98.3302 93.5732 98.8223C93.0811 99.3144 92.8047 99.9818 92.8047 100.678" fill="white"/>
<path d="M98.0527 103.302H92.8047V108.55H98.0527V103.302Z" fill="white"/>
<path d="M98.0527 108.55H92.8047V113.798H98.0527V108.55Z" fill="white"/>
<path d="M98.0527 113.798H92.8047V119.046H98.0527V113.798Z" fill="white"/>
<path d="M98.0527 119.046H92.8047V124.294H98.0527V119.046Z" fill="white"/>
<path d="M92.8047 129.542V134.79H98.0527V132.166C98.0527 131.47 97.7762 130.803 97.2841 130.31C96.792 129.818 96.1246 129.542 95.4287 129.542" fill="white"/>
<path d="M98.0527 140.038V134.79H92.8047V137.414C92.8047 138.11 93.0812 138.777 93.5733 139.269C94.0654 139.761 94.7328 140.038 95.4287 140.038" fill="white"/>
<path d="M95.4287 150.534C96.8779 150.534 98.0527 149.359 98.0527 147.91C98.0527 146.461 96.8779 145.286 95.4287 145.286C93.9795 145.286 92.8047 146.461 92.8047 147.91C92.8047 149.359 93.9795 150.534 95.4287 150.534Z" fill="white"/>
<path d="M92.8047 161.03H98.0527V155.782H95.4287C94.7328 155.782 94.0653 156.058 93.5732 156.55C93.0811 157.042 92.8047 157.71 92.8047 158.406" fill="white"/>
<path d="M98.0527 161.03H92.8047V166.278H95.4287C96.1247 166.278 96.7921 166.001 97.2842 165.509C97.7763 165.017 98.0527 164.35 98.0527 163.654" fill="white"/>
<path d="M103.301 14.0858H98.0527V19.3338H103.301V14.0858Z" fill="white"/>
<path d="M103.301 40.3258V35.0778H100.677C99.9809 35.0778 99.3134 35.3543 98.8213 35.8464C98.3292 36.3385 98.0528 37.0059 98.0528 37.7018C98.0528 38.3977 98.3292 39.0652 98.8213 39.5573C99.3134 40.0493 99.9809 40.3258 100.677 40.3258" fill="white"/>
<path d="M100.677 50.8219C102.126 50.8219 103.301 49.647 103.301 48.1979C103.301 46.7487 102.126 45.5739 100.677 45.5739C99.2275 45.5739 98.0527 46.7487 98.0527 48.1979C98.0527 49.647 99.2275 50.8219 100.677 50.8219Z" fill="white"/>
<path d="M98.0527 61.3179V66.5659H100.677C101.373 66.5659 102.04 66.2894 102.532 65.7973C103.024 65.3052 103.301 64.6378 103.301 63.9419C103.301 63.2459 103.024 62.5785 102.532 62.0864C102.04 61.5943 101.373 61.3179 100.677 61.3179" fill="white"/>
<path d="M103.301 77.0618H98.0527V82.3098H103.301V77.0618Z" fill="white"/>
<path d="M98.0527 108.55V113.798H100.677C101.373 113.798 102.04 113.521 102.532 113.029C103.024 112.537 103.301 111.87 103.301 111.174C103.301 110.478 103.024 109.81 102.532 109.318C102.04 108.826 101.373 108.55 100.677 108.55" fill="white"/>
<path d="M103.301 119.046H98.0527V124.294H103.301V119.046Z" fill="white"/>
<path d="M103.301 129.542V124.294H98.0528V126.918C98.0528 127.614 98.3292 128.281 98.8213 128.773C99.3134 129.265 99.9809 129.542 100.677 129.542" fill="white"/>
<path d="M103.301 134.79H98.0527V140.038H103.301V134.79Z" fill="white"/>
<path d="M98.0527 155.782V161.03H100.677C101.373 161.03 102.04 160.753 102.532 160.261C103.024 159.769 103.301 159.102 103.301 158.406C103.301 157.71 103.024 157.043 102.532 156.55C102.04 156.058 101.373 155.782 100.677 155.782" fill="white"/>
<path d="M103.301 14.0858V19.3338H108.549V16.7098C108.549 16.0139 108.272 15.3465 107.78 14.8544C107.288 14.3623 106.621 14.0858 105.925 14.0858" fill="white"/>
<path d="M108.549 19.3339H103.301V21.9579C103.301 22.6538 103.577 23.3212 104.069 23.8133C104.561 24.3054 105.229 24.5819 105.925 24.5819C106.621 24.5819 107.288 24.3054 107.78 23.8133C108.272 23.3212 108.549 22.6538 108.549 21.9579" fill="white"/>
<path d="M103.301 35.0778H108.549V32.4538C108.549 31.7578 108.272 31.0904 107.78 30.5983C107.288 30.1062 106.621 29.8298 105.925 29.8298C105.229 29.8298 104.561 30.1062 104.069 30.5983C103.577 31.0904 103.301 31.7578 103.301 32.4538" fill="white"/>
<path d="M108.549 35.0778H103.301V40.3258H105.925C106.621 40.3258 107.288 40.0493 107.78 39.5572C108.272 39.0651 108.549 38.3977 108.549 37.7018" fill="white"/>
<path d="M105.925 71.8138C107.374 71.8138 108.549 70.639 108.549 69.1898C108.549 67.7406 107.374 66.5658 105.925 66.5658C104.476 66.5658 103.301 67.7406 103.301 69.1898C103.301 70.639 104.476 71.8138 105.925 71.8138Z" fill="white"/>
<path d="M103.301 77.0618V82.3098H108.549V79.6858C108.549 78.9898 108.272 78.3224 107.78 77.8303C107.288 77.3382 106.621 77.0618 105.925 77.0618" fill="white"/>
<path d="M108.549 87.5579V82.3099H103.301V84.9339C103.301 85.6298 103.577 86.2972 104.069 86.7893C104.561 87.2814 105.229 87.5579 105.925 87.5579" fill="white"/>
<path d="M103.301 103.302H108.549V98.0538H105.925C105.229 98.0538 104.561 98.3302 104.069 98.8223C103.577 99.3144 103.301 99.9818 103.301 100.678" fill="white"/>
<path d="M108.549 108.55V103.302H103.301V105.926C103.301 106.622 103.577 107.289 104.069 107.781C104.561 108.273 105.229 108.55 105.925 108.55" fill="white"/>
<path d="M103.301 119.046H108.549V116.422C108.549 115.726 108.272 115.058 107.78 114.566C107.288 114.074 106.621 113.798 105.925 113.798C105.229 113.798 104.561 114.074 104.069 114.566C103.577 115.058 103.301 115.726 103.301 116.422" fill="white"/>
<path d="M108.549 119.046H103.301V124.294H108.549V119.046Z" fill="white"/>
<path d="M108.549 124.294H103.301V129.542H108.549V124.294Z" fill="white"/>
<path d="M108.549 129.542H103.301V134.79H108.549V129.542Z" fill="white"/>
<path d="M108.549 134.79H103.301V140.038H108.549V134.79Z" fill="white"/>
<path d="M108.549 145.286V140.038H103.301V142.662C103.301 143.358 103.577 144.025 104.069 144.517C104.561 145.009 105.229 145.286 105.925 145.286" fill="white"/>
<path d="M108.549 166.278V161.03H105.925C105.229 161.03 104.561 161.306 104.069 161.798C103.577 162.29 103.301 162.958 103.301 163.654C103.301 164.35 103.577 165.017 104.069 165.509C104.561 166.001 105.229 166.278 105.925 166.278" fill="white"/>
<path d="M111.173 29.8298C112.622 29.8298 113.797 28.655 113.797 27.2058C113.797 25.7566 112.622 24.5818 111.173 24.5818C109.724 24.5818 108.549 25.7566 108.549 27.2058C108.549 28.655 109.724 29.8298 111.173 29.8298Z" fill="white"/>
<path d="M108.549 45.5739H113.797V40.3259H111.173C110.477 40.3259 109.809 40.6023 109.317 41.0944C108.825 41.5865 108.549 42.2539 108.549 42.9499" fill="white"/>
<path d="M113.797 45.5739H108.549V48.1979C108.549 48.8938 108.825 49.5612 109.317 50.0533C109.81 50.5454 110.477 50.8219 111.173 50.8219C111.869 50.8219 112.536 50.5454 113.028 50.0533C113.52 49.5612 113.797 48.8938 113.797 48.1979" fill="white"/>
<path d="M111.173 77.0618C112.622 77.0618 113.797 75.887 113.797 74.4378C113.797 72.9886 112.622 71.8138 111.173 71.8138C109.724 71.8138 108.549 72.9886 108.549 74.4378C108.549 75.887 109.724 77.0618 111.173 77.0618Z" fill="white"/>
<path d="M108.549 82.3098V87.5578H111.173C111.869 87.5578 112.536 87.2814 113.028 86.7893C113.52 86.2972 113.797 85.6297 113.797 84.9338C113.797 84.2379 113.52 83.5705 113.028 83.0784C112.536 82.5863 111.869 82.3098 111.173 82.3098" fill="white"/>
<path d="M108.549 98.0538V103.302H113.797V100.678C113.797 99.9819 113.52 99.3145 113.028 98.8224C112.536 98.3303 111.869 98.0538 111.173 98.0538" fill="white"/>
<path d="M113.797 103.302H108.549V108.55H113.797V103.302Z" fill="white"/>
<path d="M108.549 119.046V124.294H111.173C111.869 124.294 112.536 124.017 113.028 123.525C113.52 123.033 113.797 122.366 113.797 121.67C113.797 120.974 113.52 120.306 113.028 119.814C112.536 119.322 111.869 119.046 111.173 119.046" fill="white"/>
<path d="M108.549 134.79V140.038H113.797V137.414C113.797 136.718 113.52 136.05 113.028 135.558C112.536 135.066 111.869 134.79 111.173 134.79" fill="white"/>
<path d="M113.797 140.038H108.549V145.286H113.797V140.038Z" fill="white"/>
<path d="M113.797 145.286H108.549V150.534H113.797V145.286Z" fill="white"/>
<path d="M113.797 150.534H108.549V153.158C108.549 153.854 108.825 154.521 109.317 155.013C109.81 155.505 110.477 155.782 111.173 155.782C111.869 155.782 112.536 155.505 113.028 155.013C113.52 154.521 113.797 153.854 113.797 153.158" fill="white"/>
<path d="M113.797 161.03H108.549V166.278H113.797V161.03Z" fill="white"/>
<path d="M113.797 35.0778H119.045V32.4538C119.045 31.7578 118.768 31.0904 118.276 30.5983C117.784 30.1062 117.117 29.8298 116.421 29.8298C115.725 29.8298 115.058 30.1062 114.565 30.5983C114.073 31.0904 113.797 31.7578 113.797 32.4538" fill="white"/>
<path d="M119.045 35.0778H113.797V40.3258H119.045V35.0778Z" fill="white"/>
<path d="M119.045 40.3258H113.797V45.5738H116.421C117.117 45.5738 117.784 45.2974 118.276 44.8053C118.768 44.3132 119.045 43.6457 119.045 42.9498" fill="white"/>
<path d="M116.421 66.5659C117.87 66.5659 119.045 65.3911 119.045 63.9419C119.045 62.4927 117.87 61.3179 116.421 61.3179C114.972 61.3179 113.797 62.4927 113.797 63.9419C113.797 65.3911 114.972 66.5659 116.421 66.5659Z" fill="white"/>
<path d="M119.045 82.3098V77.0618H116.421C115.725 77.0618 115.058 77.3383 114.565 77.8304C114.073 78.3225 113.797 78.9899 113.797 79.6858C113.797 80.3817 114.073 81.0492 114.565 81.5413C115.058 82.0334 115.725 82.3098 116.421 82.3098" fill="white"/>
<path d="M119.045 103.302H113.797V108.55H119.045V103.302Z" fill="white"/>
<path d="M119.045 108.55H113.797V111.174C113.797 111.87 114.073 112.537 114.565 113.029C115.058 113.521 115.725 113.798 116.421 113.798C117.117 113.798 117.784 113.521 118.276 113.029C118.768 112.537 119.045 111.87 119.045 111.174" fill="white"/>
<path d="M119.045 145.286H113.797V150.534H119.045V145.286Z" fill="white"/>
<path d="M119.045 161.03H113.797V166.278H119.045V161.03Z" fill="white"/>
<path d="M119.045 19.3339H124.293V16.7099C124.293 16.0139 124.016 15.3465 123.524 14.8544C123.032 14.3623 122.365 14.0859 121.669 14.0859C120.973 14.0859 120.306 14.3623 119.813 14.8544C119.321 15.3465 119.045 16.0139 119.045 16.7099" fill="white"/>
<path d="M124.293 19.3339H119.045V24.5819H124.293V19.3339Z" fill="white"/>
<path d="M124.293 24.5818H119.045V27.2058C119.045 27.9017 119.321 28.5691 119.814 29.0612C120.306 29.5533 120.973 29.8298 121.669 29.8298C122.365 29.8298 123.032 29.5533 123.524 29.0612C124.017 28.5691 124.293 27.9017 124.293 27.2058" fill="white"/>
<path d="M119.045 35.0778V40.3258H121.669C122.365 40.3258 123.032 40.0493 123.524 39.5572C124.016 39.0651 124.293 38.3977 124.293 37.7018C124.293 37.0058 124.016 36.3384 123.524 35.8463C123.032 35.3542 122.365 35.0778 121.669 35.0778" fill="white"/>
<path d="M119.045 50.8218H124.293V48.1978C124.293 47.5018 124.016 46.8344 123.524 46.3423C123.032 45.8502 122.365 45.5738 121.669 45.5738C120.973 45.5738 120.306 45.8502 119.813 46.3423C119.321 46.8344 119.045 47.5018 119.045 48.1978" fill="white"/>
<path d="M124.293 50.8218H119.045V56.0698H124.293V50.8218Z" fill="white"/>
<path d="M124.293 61.3179V56.0699H119.045V58.6939C119.045 59.3898 119.321 60.0572 119.814 60.5493C120.306 61.0414 120.973 61.3179 121.669 61.3179" fill="white"/>
<path d="M119.045 77.0618V82.3098H121.669C122.365 82.3098 123.032 82.0333 123.524 81.5412C124.016 81.0491 124.293 80.3817 124.293 79.6858C124.293 78.9898 124.016 78.3224 123.524 77.8303C123.032 77.3382 122.365 77.0618 121.669 77.0618" fill="white"/>
<path d="M124.293 98.0538V92.8058H121.669C120.973 92.8058 120.306 93.0823 119.814 93.5744C119.321 94.0665 119.045 94.7339 119.045 95.4298C119.045 96.1258 119.321 96.7932 119.814 97.2853C120.306 97.7774 120.973 98.0538 121.669 98.0538" fill="white"/>
<path d="M124.293 103.302H119.045V108.55H124.293V103.302Z" fill="white"/>
<path d="M119.045 124.294H124.293V119.046H121.669C120.973 119.046 120.306 119.322 119.813 119.814C119.321 120.306 119.045 120.974 119.045 121.67" fill="white"/>
<path d="M124.293 124.294H119.045V129.542H124.293V124.294Z" fill="white"/>
<path d="M124.293 129.542H119.045V134.79H124.293V129.542Z" fill="white"/>
<path d="M124.293 134.79H119.045V140.038H124.293V134.79Z" fill="white"/>
<path d="M124.293 140.038H119.045V145.286H124.293V140.038Z" fill="white"/>
<path d="M124.293 145.286H119.045V150.534H121.669C122.365 150.534 123.032 150.257 123.524 149.765C124.017 149.273 124.293 148.606 124.293 147.91" fill="white"/>
<path d="M124.293 161.03H119.045V166.278H124.293V161.03Z" fill="white"/>
<path d="M124.293 56.0698V61.3178H126.917C127.613 61.3178 128.28 61.0414 128.772 60.5493C129.265 60.0572 129.541 59.3898 129.541 58.6938C129.541 57.9979 129.265 57.3305 128.772 56.8384C128.28 56.3463 127.613 56.0698 126.917 56.0698" fill="white"/>
<path d="M124.293 87.5579H129.541V82.3099H126.917C126.221 82.3099 125.554 82.5863 125.062 83.0784C124.569 83.5705 124.293 84.2379 124.293 84.9339" fill="white"/>
<path d="M129.541 87.5579H124.293V92.8059H129.541V87.5579Z" fill="white"/>
<path d="M129.541 92.8058H124.293V98.0538H129.541V92.8058Z" fill="white"/>
<path d="M124.293 103.302V108.55H129.541V105.926C129.541 105.23 129.265 104.562 128.772 104.07C128.28 103.578 127.613 103.302 126.917 103.302" fill="white"/>
<path d="M129.541 108.55H124.293V113.798H129.541V108.55Z" fill="white"/>
<path d="M129.541 113.798H124.293V119.046H129.541V113.798Z" fill="white"/>
<path d="M129.541 119.046H124.293V124.294H129.541V119.046Z" fill="white"/>
<path d="M129.541 140.038H124.293V145.286H129.541V140.038Z" fill="white"/>
<path d="M124.293 155.782H129.541V153.158C129.541 152.462 129.265 151.795 128.772 151.302C128.28 150.81 127.613 150.534 126.917 150.534C126.221 150.534 125.554 150.81 125.062 151.302C124.569 151.795 124.293 152.462 124.293 153.158" fill="white"/>
<path d="M129.541 155.782H124.293V161.03H129.541V155.782Z" fill="white"/>
<path d="M129.541 161.03H124.293V166.278H129.541V161.03Z" fill="white"/>
<path d="M129.541 66.5658H134.789V63.9418C134.789 63.2459 134.513 62.5784 134.02 62.0863C133.528 61.5943 132.861 61.3178 132.165 61.3178C131.469 61.3178 130.802 61.5943 130.31 62.0863C129.817 62.5784 129.541 63.2459 129.541 63.9418" fill="white"/>
<path d="M134.789 66.5658H129.541V71.8138H134.789V66.5658Z" fill="white"/>
<path d="M134.789 71.8138H129.541V77.0618H134.789V71.8138Z" fill="white"/>
<path d="M134.789 77.0618H129.541V82.3098H134.789V77.0618Z" fill="white"/>
<path d="M134.789 82.3098H129.541V87.5578H134.789V82.3098Z" fill="white"/>
<path d="M134.789 87.5579H129.541V92.8059H134.789V87.5579Z" fill="white"/>
<path d="M134.789 92.8058H129.541V98.0538H132.165C132.861 98.0538 133.528 97.7773 134.021 97.2852C134.513 96.7931 134.789 96.1257 134.789 95.4298" fill="white"/>
<path d="M129.541 108.55V113.798H134.789V111.174C134.789 110.478 134.513 109.81 134.02 109.318C133.528 108.826 132.861 108.55 132.165 108.55" fill="white"/>
<path d="M134.789 113.798H129.541V119.046H134.789V113.798Z" fill="white"/>
<path d="M134.789 119.046H129.541V124.294H134.789V119.046Z" fill="white"/>
<path d="M132.165 134.79C133.614 134.79 134.789 133.615 134.789 132.166C134.789 130.717 133.614 129.542 132.165 129.542C130.716 129.542 129.541 130.717 129.541 132.166C129.541 133.615 130.716 134.79 132.165 134.79Z" fill="white"/>
<path d="M134.789 140.038H129.541V145.286H134.789V140.038Z" fill="white"/>
<path d="M129.541 161.03V166.278H132.165C132.861 166.278 133.528 166.001 134.02 165.509C134.513 165.017 134.789 164.35 134.789 163.654C134.789 162.958 134.513 162.29 134.02 161.798C133.528 161.306 132.861 161.03 132.165 161.03" fill="white"/>
<path d="M134.789 71.8138V77.0618H137.413C138.109 77.0618 138.776 76.7854 139.269 76.2933C139.761 75.8012 140.037 75.1338 140.037 74.4378C140.037 73.7419 139.761 73.0745 139.269 72.5824C138.776 72.0903 138.109 71.8138 137.413 71.8138" fill="white"/>
<path d="M140.037 82.3098H134.789V87.5578H140.037V82.3098Z" fill="white"/>
<path d="M140.037 87.5579H134.789V92.8059H137.413C138.109 92.8059 138.776 92.5294 139.269 92.0373C139.761 91.5452 140.037 90.8778 140.037 90.1819" fill="white"/>
<path d="M140.037 103.302V98.0538H137.413C136.717 98.0538 136.05 98.3302 135.558 98.8223C135.066 99.3144 134.789 99.9818 134.789 100.678C134.789 101.374 135.066 102.041 135.558 102.533C136.05 103.025 136.717 103.302 137.413 103.302" fill="white"/>
<path d="M140.037 113.798H134.789V119.046H140.037V113.798Z" fill="white"/>
<path d="M140.037 119.046H134.789V124.294H140.037V119.046Z" fill="white"/>
<path d="M140.037 140.038H134.789V145.286H140.037V140.038Z" fill="white"/>
<path d="M140.037 145.286H134.789V147.91C134.789 148.606 135.066 149.273 135.558 149.765C136.05 150.257 136.717 150.534 137.413 150.534C138.109 150.534 138.776 150.257 139.269 149.765C139.761 149.273 140.037 148.606 140.037 147.91" fill="white"/>
<path d="M140.037 161.03V155.782H137.413C136.717 155.782 136.05 156.058 135.558 156.55C135.066 157.042 134.789 157.71 134.789 158.406C134.789 159.102 135.066 159.769 135.558 160.261C136.05 160.753 136.717 161.03 137.413 161.03" fill="white"/>
<path d="M142.661 61.3178C144.11 61.3178 145.285 60.143 145.285 58.6938C145.285 57.2446 144.11 56.0698 142.661 56.0698C141.212 56.0698 140.037 57.2446 140.037 58.6938C140.037 60.143 141.212 61.3178 142.661 61.3178Z" fill="white"/>
<path d="M140.037 82.3098V87.5578H142.661C143.357 87.5578 144.024 87.2814 144.517 86.7893C145.009 86.2972 145.285 85.6297 145.285 84.9338C145.285 84.2379 145.009 83.5705 144.517 83.0784C144.024 82.5863 143.357 82.3098 142.661 82.3098" fill="white"/>
<path d="M140.037 98.0538H145.285V95.4298C145.285 94.7339 145.009 94.0665 144.517 93.5744C144.024 93.0823 143.357 92.8058 142.661 92.8058C141.965 92.8058 141.298 93.0823 140.806 93.5744C140.314 94.0665 140.037 94.7339 140.037 95.4298" fill="white"/>
<path d="M145.285 98.0538H140.037V103.302H142.661C143.357 103.302 144.025 103.025 144.517 102.533C145.009 102.041 145.285 101.374 145.285 100.678" fill="white"/>
<path d="M140.037 113.798V119.046H145.285V116.422C145.285 115.726 145.009 115.058 144.517 114.566C144.024 114.074 143.357 113.798 142.661 113.798" fill="white"/>
<path d="M145.285 119.046H140.037V124.294H145.285V119.046Z" fill="white"/>
<path d="M145.285 124.294H140.037V129.542H145.285V124.294Z" fill="white"/>
<path d="M145.285 129.542H140.037V134.79H145.285V129.542Z" fill="white"/>
<path d="M145.285 134.79H140.037V140.038H145.285V134.79Z" fill="white"/>
<path d="M145.285 140.038H140.037V145.286H142.661C143.357 145.286 144.025 145.009 144.517 144.517C145.009 144.025 145.285 143.358 145.285 142.662" fill="white"/>
<path d="M145.285 155.782H140.037V161.03H145.285V155.782Z" fill="white"/>
<path d="M145.285 161.03H140.037V163.654C140.037 164.35 140.314 165.017 140.806 165.509C141.298 166.001 141.965 166.278 142.661 166.278C143.357 166.278 144.025 166.001 144.517 165.509C145.009 165.017 145.285 164.35 145.285 163.654" fill="white"/>
<path d="M147.909 82.3098C149.358 82.3098 150.533 81.135 150.533 79.6858C150.533 78.2366 149.358 77.0618 147.909 77.0618C146.46 77.0618 145.285 78.2366 145.285 79.6858C145.285 81.135 146.46 82.3098 147.909 82.3098Z" fill="white"/>
<path d="M145.285 108.55H150.533V105.926C150.533 105.23 150.257 104.562 149.765 104.07C149.273 103.578 148.605 103.302 147.909 103.302C147.213 103.302 146.546 103.578 146.054 104.07C145.562 104.562 145.285 105.23 145.285 105.926" fill="white"/>
<path d="M150.533 113.798V108.55H145.285V111.174C145.285 111.87 145.562 112.537 146.054 113.029C146.546 113.521 147.213 113.798 147.909 113.798" fill="white"/>
<path d="M145.285 134.79V140.038H147.909C148.605 140.038 149.273 139.761 149.765 139.269C150.257 138.777 150.533 138.11 150.533 137.414C150.533 136.718 150.257 136.05 149.765 135.558C149.273 135.066 148.605 134.79 147.909 134.79" fill="white"/>
<path d="M147.909 150.534C149.358 150.534 150.533 149.359 150.533 147.91C150.533 146.461 149.358 145.286 147.909 145.286C146.46 145.286 145.285 146.461 145.285 147.91C145.285 149.359 146.46 150.534 147.909 150.534Z" fill="white"/>
<path d="M150.533 155.782H145.285V161.03H150.533V155.782Z" fill="white"/>
<path d="M155.781 71.8138V66.5658H153.157C152.461 66.5658 151.794 66.8423 151.302 67.3344C150.81 67.8265 150.533 68.4939 150.533 69.1898C150.533 69.8858 150.81 70.5532 151.302 71.0453C151.794 71.5374 152.461 71.8138 153.157 71.8138" fill="white"/>
<path d="M150.533 92.8058H155.781V90.1818C155.781 89.4859 155.505 88.8184 155.013 88.3263C154.521 87.8342 153.853 87.5578 153.157 87.5578C152.461 87.5578 151.794 87.8342 151.302 88.3263C150.81 88.8184 150.533 89.4859 150.533 90.1818" fill="white"/>
<path d="M155.781 98.0538V92.8058H150.533V95.4298C150.533 96.1258 150.81 96.7932 151.302 97.2853C151.794 97.7774 152.461 98.0538 153.157 98.0538" fill="white"/>
<path d="M150.533 108.55V113.798H155.781V111.174C155.781 110.478 155.505 109.81 155.013 109.318C154.521 108.826 153.853 108.55 153.157 108.55" fill="white"/>
<path d="M155.781 113.798H150.533V119.046H155.781V113.798Z" fill="white"/>
<path d="M155.781 119.046H150.533V124.294H155.781V119.046Z" fill="white"/>
<path d="M155.781 129.542V124.294H150.533V126.918C150.533 127.614 150.81 128.281 151.302 128.773C151.794 129.265 152.461 129.542 153.157 129.542" fill="white"/>
<path d="M155.781 155.782H150.533V161.03H155.781V155.782Z" fill="white"/>
<path d="M155.781 166.278V161.03H150.533V163.654C150.533 164.35 150.81 165.017 151.302 165.509C151.794 166.001 152.461 166.278 153.157 166.278" fill="white"/>
<path d="M155.781 61.3179H161.029V58.6939C161.029 57.9979 160.753 57.3305 160.261 56.8384C159.769 56.3463 159.101 56.0699 158.405 56.0699C157.709 56.0699 157.042 56.3463 156.55 56.8384C156.058 57.3305 155.781 57.9979 155.781 58.6939" fill="white"/>
<path d="M161.029 61.3179H155.781V66.5659H161.029V61.3179Z" fill="white"/>
<path d="M161.029 66.5658H155.781V71.8138H161.029V66.5658Z" fill="white"/>
<path d="M161.029 71.8138H155.781V77.0618H161.029V71.8138Z" fill="white"/>
<path d="M161.029 77.0618H155.781V79.6858C155.781 80.3817 156.058 81.0491 156.55 81.5412C157.042 82.0333 157.709 82.3098 158.405 82.3098C159.101 82.3098 159.769 82.0333 160.261 81.5412C160.753 81.0491 161.029 80.3817 161.029 79.6858" fill="white"/>
<path d="M155.781 92.8058V98.0538H161.029V95.4298C161.029 94.7339 160.753 94.0664 160.261 93.5743C159.769 93.0822 159.101 92.8058 158.405 92.8058" fill="white"/>
<path d="M161.029 98.0538H155.781V103.302H161.029V98.0538Z" fill="white"/>
<path d="M161.029 108.55V103.302H155.781V105.926C155.781 106.622 156.058 107.289 156.55 107.781C157.042 108.273 157.709 108.55 158.405 108.55" fill="white"/>
<path d="M161.029 119.046H155.781V124.294H161.029V119.046Z" fill="white"/>
<path d="M161.029 124.294H155.781V129.542H161.029V124.294Z" fill="white"/>
<path d="M161.029 129.542H155.781V134.79H161.029V129.542Z" fill="white"/>
<path d="M161.029 134.79H155.781V137.414C155.781 138.11 156.058 138.777 156.55 139.269C157.042 139.761 157.709 140.038 158.405 140.038C159.101 140.038 159.769 139.761 160.261 139.269C160.753 138.777 161.029 138.11 161.029 137.414" fill="white"/>
<path d="M161.029 150.534V145.286H158.405C157.709 145.286 157.042 145.562 156.55 146.054C156.058 146.546 155.781 147.214 155.781 147.91C155.781 148.606 156.058 149.273 156.55 149.765C157.042 150.257 157.709 150.534 158.405 150.534" fill="white"/>
<path d="M161.029 155.782H155.781V161.03H161.029V155.782Z" fill="white"/>
<path d="M161.029 161.03H155.781V166.278H158.405C159.101 166.278 159.769 166.001 160.261 165.509C160.753 165.017 161.029 164.35 161.029 163.654" fill="white"/>
<path d="M161.029 61.3179V66.5659H166.277V63.9419C166.277 63.2459 166.001 62.5785 165.509 62.0864C165.017 61.5943 164.349 61.3179 163.653 61.3179" fill="white"/>
<path d="M166.277 66.5658H161.029V71.8138H163.653C164.349 71.8138 165.017 71.5373 165.509 71.0452C166.001 70.5532 166.277 69.8857 166.277 69.1898" fill="white"/>
<path d="M161.029 103.302V108.55H163.653C164.349 108.55 165.017 108.273 165.509 107.781C166.001 107.289 166.277 106.622 166.277 105.926C166.277 105.23 166.001 104.562 165.509 104.07C165.017 103.578 164.349 103.302 163.653 103.302" fill="white"/>
<path d="M161.029 119.046V124.294H163.653C164.349 124.294 165.017 124.017 165.509 123.525C166.001 123.033 166.277 122.366 166.277 121.67C166.277 120.974 166.001 120.306 165.509 119.814C165.017 119.322 164.349 119.046 163.653 119.046" fill="white"/>
<path d="M161.029 145.286H166.277V142.662C166.277 141.966 166.001 141.298 165.509 140.806C165.017 140.314 164.349 140.038 163.653 140.038C162.957 140.038 162.29 140.314 161.798 140.806C161.306 141.298 161.029 141.966 161.029 142.662" fill="white"/>
<path d="M166.277 145.286H161.029V150.534H163.653C164.349 150.534 165.017 150.257 165.509 149.765C166.001 149.273 166.277 148.606 166.277 147.91" fill="white"/>
<path d="M161.029 155.782V161.03H163.653C164.349 161.03 165.017 160.753 165.509 160.261C166.001 159.769 166.277 159.102 166.277 158.406C166.277 157.71 166.001 157.043 165.509 156.55C165.017 156.058 164.349 155.782 163.653 155.782" fill="white"/>
</mask>
<g mask="url(#mask0_6385_7965)">
<path d="M172.182 8.18176H8.18164V172.182H172.182V8.18176Z" fill="url(#paint0_radial_6385_7965)"/>
</g>
<path d="M32.4531 40.3258C36.8006 40.3258 40.3251 36.8014 40.3251 32.4538C40.3251 28.1062 36.8006 24.5818 32.4531 24.5818C28.1055 24.5818 24.5811 28.1062 24.5811 32.4538C24.5811 36.8014 28.1055 40.3258 32.4531 40.3258Z" fill="#5910A6"/>
<path d="M140.037 32.4538C140.037 36.8014 143.562 40.3258 147.909 40.3258C152.257 40.3258 155.781 36.8014 155.781 32.4538C155.781 28.1062 152.257 24.5818 147.909 24.5818C143.562 24.5818 140.037 28.1062 140.037 32.4538Z" fill="#5910A6"/>
<path d="M40.3251 147.91C40.3251 143.562 36.8006 140.038 32.4531 140.038C28.1055 140.038 24.5811 143.562 24.5811 147.91C24.5811 152.257 28.1055 155.782 32.4531 155.782C36.8006 155.782 40.3251 152.257 40.3251 147.91Z" fill="#5910A6"/>
<path fill-rule="evenodd" clip-rule="evenodd" d="M14.085 27.2058V37.7018C14.085 41.1815 15.4672 44.5186 17.9277 46.9791C19.146 48.1974 20.5924 49.1638 22.1842 49.8231C23.7759 50.4825 25.482 50.8218 27.205 50.8218H37.701C41.1806 50.8218 44.5177 49.4395 46.9782 46.9791C49.4387 44.5186 50.821 41.1815 50.821 37.7018V27.2058C50.821 25.4829 50.4816 23.7768 49.8223 22.185C49.1629 20.5932 48.1965 19.1469 46.9782 17.9286C45.7599 16.7103 44.3136 15.7439 42.7218 15.0845C41.13 14.4252 39.4239 14.0858 37.701 14.0858H27.205C25.482 14.0858 23.7759 14.4252 22.1842 15.0845C20.5924 15.7439 19.146 16.7103 17.9277 17.9286C15.4672 20.3891 14.085 23.7262 14.085 27.2058ZM27.205 19.3338H37.701C39.7887 19.3338 41.791 20.1632 43.2673 21.6395C44.7436 23.1158 45.573 25.118 45.573 27.2058V37.7018C45.573 39.7896 44.7436 41.7919 43.2673 43.2682C41.791 44.7444 39.7887 45.5738 37.701 45.5738H27.205C25.1172 45.5738 23.1149 44.7444 21.6386 43.2682C20.1623 41.7919 19.333 39.7896 19.333 37.7018V27.2058C19.333 25.118 20.1623 23.1158 21.6386 21.6395C23.1149 20.1632 25.1172 19.3338 27.205 19.3338Z" fill="#A049FC"/>
<path fill-rule="evenodd" clip-rule="evenodd" d="M153.157 14.0858L142.661 14.0858C139.182 14.0858 135.845 15.4681 133.384 17.9286C130.924 20.3891 129.541 23.7262 129.541 27.2058V37.7018C129.541 41.1815 130.924 44.5186 133.384 46.9791C135.845 49.4395 139.182 50.8218 142.661 50.8218H153.157C154.88 50.8218 156.586 50.4825 158.178 49.8231C159.77 49.1638 161.216 48.1974 162.435 46.9791C163.653 45.7608 164.619 44.3144 165.279 42.7226C165.938 41.1308 166.277 39.4248 166.277 37.7018V27.2058C166.277 23.7262 164.895 20.3891 162.435 17.9286C159.974 15.4681 156.637 14.0858 153.157 14.0858ZM161.029 27.2058V37.7018C161.029 39.7896 160.2 41.7919 158.724 43.2682C157.247 44.7444 155.245 45.5738 153.157 45.5738H142.661C140.574 45.5738 138.571 44.7444 137.095 43.2682C135.619 41.7919 134.789 39.7896 134.789 37.7018V27.2058C134.789 25.118 135.619 23.1158 137.095 21.6395C138.571 20.1632 140.574 19.3338 142.661 19.3338H153.157C155.245 19.3338 157.247 20.1632 158.724 21.6395C160.2 23.1158 161.029 25.118 161.029 27.2058Z" fill="#A049FC"/>
<path fill-rule="evenodd" clip-rule="evenodd" d="M27.205 166.278H37.701C41.1806 166.278 44.5177 164.896 46.9782 162.435C48.1965 161.217 49.1629 159.77 49.8223 158.179C50.4816 156.587 50.821 154.881 50.821 153.158V142.662C50.821 139.182 49.4387 135.845 46.9782 133.385C44.5177 130.924 41.1806 129.542 37.701 129.542H27.205C23.7253 129.542 20.3882 130.924 17.9277 133.385C15.4672 135.845 14.085 139.182 14.085 142.662L14.085 153.158C14.085 154.881 14.4243 156.587 15.0837 158.179C15.743 159.77 16.7094 161.217 17.9277 162.435C20.3882 164.896 23.7253 166.278 27.205 166.278ZM19.333 153.158V142.662C19.333 140.574 20.1623 138.572 21.6386 137.095C23.1149 135.619 25.1172 134.79 27.205 134.79H37.701C39.7887 134.79 41.791 135.619 43.2673 137.095C44.7436 138.572 45.573 140.574 45.573 142.662V153.158C45.573 155.246 44.7436 157.248 43.2673 158.724C41.791 160.2 39.7887 161.03 37.701 161.03H27.205C25.1172 161.03 23.1149 160.2 21.6386 158.724C20.1623 157.248 19.333 155.246 19.333 153.158Z" fill="#A049FC"/>
</g>
<defs>
<radialGradient id="paint0_radial_6385_7965" cx="0" cy="0" r="1" gradientUnits="userSpaceOnUse" gradientTransform="translate(60.1816 -63.2376) rotate(92.2531) scale(292.517 466.127)">
<stop offset="1" stop-color="#50099B"/>
<stop stop-color="#A049FC"/>
</radialGradient>
<clipPath id="clip0_6385_7965">
<rect width="164" height="164" fill="white" transform="translate(8.18164 8.18176)"/>
</clipPath>
</defs>
</svg>
