<svg width="690" height="327" viewBox="0 0 690 327" fill="none" xmlns="http://www.w3.org/2000/svg">
<path d="M350.87 93.4951C349.54 101.305 339.157 101.298 337.836 93.4961L337.836 93.4951C331.845 58.2852 323.947 35.2823 309.102 19.5087C294.246 3.72519 272.571 -4.67732 239.411 -11.0509L239.41 -11.0509C235.784 -11.7439 233.927 -14.8238 233.927 -18.0323C233.927 -21.2409 235.785 -24.324 239.411 -25.0216C272.566 -31.3901 294.24 -39.7897 309.095 -55.5733C323.94 -71.3468 331.84 -94.3525 337.836 -129.567C339.166 -137.377 349.549 -137.371 350.87 -129.568L350.87 -129.567L351.438 -126.302C357.362 -92.9267 365.224 -70.8617 379.606 -55.5811C394.461 -39.7977 416.136 -31.395 449.295 -25.0215C452.922 -24.324 454.779 -21.2409 454.779 -18.0322C454.779 -14.9239 453.036 -11.9367 449.631 -11.1231L449.296 -11.0508C416.141 -4.6823 394.467 3.71746 379.612 19.5009C364.767 35.2745 356.866 58.2801 350.87 93.4951Z" stroke="url(#paint0_linear_2929_25012)" stroke-opacity="0.6" stroke-width="1.86233"/>
<path d="M350.87 93.4951C349.54 101.305 339.157 101.298 337.836 93.4961L337.836 93.4951C331.845 58.2852 323.947 35.2823 309.102 19.5087C294.246 3.72519 272.571 -4.67732 239.411 -11.0509L239.41 -11.0509C235.784 -11.7439 233.927 -14.8238 233.927 -18.0323C233.927 -21.2409 235.785 -24.324 239.411 -25.0216C272.566 -31.3901 294.24 -39.7897 309.095 -55.5733C323.94 -71.3468 331.84 -94.3525 337.836 -129.567C339.166 -137.377 349.549 -137.371 350.87 -129.568L350.87 -129.567L351.438 -126.302C357.362 -92.9267 365.224 -70.8617 379.606 -55.5811C394.461 -39.7977 416.136 -31.395 449.295 -25.0215C452.922 -24.324 454.779 -21.2409 454.779 -18.0322C454.779 -14.9239 453.036 -11.9367 449.631 -11.1231L449.296 -11.0508C416.141 -4.6823 394.467 3.71746 379.612 19.5009C364.767 35.2745 356.866 58.2801 350.87 93.4951Z" stroke="url(#paint1_radial_2929_25012)" stroke-opacity="0.12" stroke-width="1.86233"/>
<path d="M353.915 170.19C351.582 183.885 333.297 183.879 330.98 170.191L330.98 170.19C321.005 111.56 307.872 73.4016 283.276 47.2685C258.671 21.1253 222.73 7.15961 167.524 -3.45131L167.523 -3.45228C161.128 -4.67448 157.886 -10.1178 157.886 -15.6906C157.886 -21.2633 161.128 -26.7106 167.524 -27.9406C222.722 -38.5431 258.659 -52.5054 283.265 -78.6485C307.861 -104.782 320.997 -142.945 330.981 -201.583C333.314 -215.278 351.598 -215.271 353.915 -201.584L353.915 -201.583C363.891 -142.953 377.024 -104.794 401.62 -78.6612C426.225 -52.5182 462.166 -38.5523 517.371 -27.9414C523.767 -26.7114 527.01 -21.2632 527.01 -15.6905C527.01 -10.1178 523.768 -4.67456 517.373 -3.45217L517.372 -3.45217C462.175 7.15035 426.237 21.1128 401.632 47.2558C377.036 73.3889 363.899 111.552 353.915 170.19Z" stroke="url(#paint2_linear_2929_25012)" stroke-opacity="0.6" stroke-width="1.86233"/>
<path d="M353.915 170.19C351.582 183.885 333.297 183.879 330.98 170.191L330.98 170.19C321.005 111.56 307.872 73.4016 283.276 47.2685C258.671 21.1253 222.73 7.15961 167.524 -3.45131L167.523 -3.45228C161.128 -4.67448 157.886 -10.1178 157.886 -15.6906C157.886 -21.2633 161.128 -26.7106 167.524 -27.9406C222.722 -38.5431 258.659 -52.5054 283.265 -78.6485C307.861 -104.782 320.997 -142.945 330.981 -201.583C333.314 -215.278 351.598 -215.271 353.915 -201.584L353.915 -201.583C363.891 -142.953 377.024 -104.794 401.62 -78.6612C426.225 -52.5182 462.166 -38.5523 517.371 -27.9414C523.767 -26.7114 527.01 -21.2632 527.01 -15.6905C527.01 -10.1178 523.768 -4.67456 517.373 -3.45217L517.372 -3.45217C462.175 7.15035 426.237 21.1128 401.632 47.2558C377.036 73.3889 363.899 111.552 353.915 170.19Z" stroke="url(#paint3_radial_2929_25012)" stroke-opacity="0.12" stroke-width="1.86233"/>
<path d="M360.52 238.423C357.261 257.553 331.853 257.696 328.27 238.872L328.188 238.424C314.43 157.565 296.329 105.021 262.48 69.0555C228.62 33.0799 179.139 13.8337 103.01 -0.799002L103.009 -0.799978C93.9849 -2.52451 89.4277 -10.2109 89.4278 -18.0275C89.4279 -25.8441 93.9852 -33.5362 103.01 -35.2717C179.128 -49.8928 228.604 -69.134 262.463 -105.11C296.313 -141.075 314.42 -193.624 328.189 -274.494C331.473 -293.775 357.256 -293.768 360.519 -274.495L360.519 -274.494L361.167 -270.725C374.847 -191.997 392.908 -140.531 426.229 -105.127C460.088 -69.1514 509.569 -49.9042 585.698 -35.2715C594.723 -33.536 599.279 -25.844 599.279 -18.0274C599.279 -10.2107 594.723 -2.52436 585.699 -0.799839L585.698 -0.798863C509.58 13.8223 460.105 33.0634 426.245 69.039C392.395 105.005 374.289 157.553 360.52 238.423Z" stroke="url(#paint4_radial_2929_25012)" stroke-opacity="0.12" stroke-width="1.86233"/>
<defs>
<linearGradient id="paint0_linear_2929_25012" x1="278.779" y1="54.8114" x2="423.388" y2="-7.59394" gradientUnits="userSpaceOnUse">
<stop stop-color="#FFFFF8"/>
<stop offset="1" stop-color="white" stop-opacity="0"/>
</linearGradient>
<radialGradient id="paint1_radial_2929_25012" cx="0" cy="0" r="1" gradientTransform="matrix(-63.6736 -280.807 50.4698 -362.288 351.777 100.281)" gradientUnits="userSpaceOnUse">
<stop offset="0.379808" stop-color="white"/>
<stop offset="0.639423" stop-color="#6049F5"/>
<stop offset="1" stop-color="#50099B"/>
</radialGradient>
<linearGradient id="paint2_linear_2929_25012" x1="233.218" y1="105.649" x2="474.099" y2="1.69789" gradientUnits="userSpaceOnUse">
<stop stop-color="#FFFFF8"/>
<stop offset="1" stop-color="white" stop-opacity="0"/>
</linearGradient>
<radialGradient id="paint3_radial_2929_25012" cx="0" cy="0" r="1" gradientTransform="matrix(-106.064 -467.753 84.0698 -603.479 354.814 181.391)" gradientUnits="userSpaceOnUse">
<stop offset="0.379808" stop-color="white"/>
<stop offset="0.639423" stop-color="#6049F5"/>
<stop offset="1" stop-color="#50099B"/>
</radialGradient>
<radialGradient id="paint4_radial_2929_25012" cx="0" cy="0" r="1" gradientTransform="matrix(-146.298 -645.186 115.96 -832.398 361.411 253.812)" gradientUnits="userSpaceOnUse">
<stop offset="0.379808" stop-color="white"/>
<stop offset="0.639423" stop-color="#6049F5"/>
<stop offset="1" stop-color="#50099B"/>
</radialGradient>
</defs>
</svg>
