<svg width="7086" height="2876" viewBox="0 0 7086 2876" fill="none" xmlns="http://www.w3.org/2000/svg">
<g clip-path="url(#clip0_544_1042)">
<path fill-rule="evenodd" clip-rule="evenodd" d="M79.543 664.607C148.777 758.679 240.025 814.687 353.285 832.629C466.545 850.571 569.807 825.378 663.078 757.05C757.988 688.975 814.512 597.663 832.653 483.104C850.793 368.546 825.107 265.11 755.595 172.799C687.999 78.9842 597.574 23.1063 484.315 5.1639C371.055 -12.7785 266.969 12.2855 172.06 80.3563C79.0696 146.924 23.5044 237.488 5.36398 352.047C-12.7765 466.605 11.9503 570.789 79.543 664.607ZM552.726 135.495C587.269 183.049 576.729 249.609 529.185 284.159L519.289 291.35L584.255 380.786L667.557 320.252C701.422 366.874 691.952 431.762 646.771 466.847L671.436 500.809C688.709 524.586 683.44 557.866 659.665 575.141C635.897 592.417 602.621 587.146 585.351 563.368L560.713 529.451L468.75 596.28L501.244 641.013C518.515 664.792 513.245 698.069 489.473 715.347C465.7 732.624 432.428 727.353 415.156 703.574L382.662 658.842L334.795 693.623C311.022 710.9 277.749 705.629 260.479 681.85C243.206 658.076 248.477 624.793 272.248 607.522L320.116 572.734L255.152 483.299L216.736 511.214C192.965 528.49 159.692 523.219 142.42 499.441C125.148 475.664 130.418 442.384 154.191 425.109L192.605 397.193L188.15 391.059C153.606 343.504 164.146 276.944 211.691 242.394L278.693 334.634L370.657 267.804L369.62 266.377C335.076 218.823 345.616 152.263 393.161 117.712L456.743 205.245L552.726 135.495ZM341.239 420.739L433.202 353.909L498.168 443.345L406.203 510.175L341.239 420.739Z" fill="#CEB5FF"/>
<path d="M165.133 2850.38V1013.92H674.24V2850.38H165.133Z" fill="white"/>
<path d="M1590.62 1789.25V2850.39H1081.52V1013.93H1582.41V1340.82H1600.48C1642.08 1233.5 1708.32 1148.63 1799.19 1086.21C1890.07 1022.69 2003.38 990.938 2139.14 990.938C2330.74 990.938 2484.02 1052.81 2598.98 1176.56C2715.03 1299.2 2773.06 1467.85 2773.06 1682.48V2850.39H2263.95V1772.83C2263.95 1660.03 2234.94 1571.88 2176.92 1508.36C2119.98 1444.85 2040.61 1413.09 1938.79 1413.09C1835.87 1413.09 1752.12 1446.49 1687.52 1513.29C1622.92 1579 1590.62 1670.99 1590.62 1789.25Z" fill="white"/>
<path d="M3300.23 2850.37V1398.29H3042.39V1013.92H3300.23V880.866C3300.23 682.658 3357.16 534.276 3471.03 435.718C3585.99 337.161 3729.41 287.882 3901.3 287.882C3980.13 287.882 4051.84 294.453 4116.44 307.593C4182.13 319.64 4230.3 330.043 4260.96 338.803L4170.64 719.891C4150.92 714.419 4126.84 708.94 4098.37 703.468C4069.91 697.989 4039.8 695.25 4008.05 695.25C3933.6 695.25 3881.05 712.773 3850.39 747.819C3820.83 781.766 3806.05 829.949 3806.05 892.364V1013.92H4172.28V1398.29H3806.05V2850.37H3300.23Z" fill="white"/>
<path d="M4993.41 402.865V2850.37H4484.31V402.865H4993.41Z" fill="white"/>
<path d="M6576.56 2070.13V1013.92H7085.69V2850.38H6596.25V2516.92H6576.56C6536.07 2624.24 6467.64 2710.75 6371.25 2776.46C6276.05 2842.16 6159.42 2874.47 6021.47 2873.37C5836.45 2874.47 5686.45 2813.69 5571.49 2691.04C5457.63 2567.3 5400.69 2398.11 5400.69 2183.47V1013.92H5909.8V2094.77C5909.8 2202.09 5938.81 2287.5 5996.84 2351.02C6054.87 2413.44 6132.05 2444.1 6228.41 2443C6319.27 2444.1 6399.76 2412.89 6469.81 2349.38C6540.98 2285.86 6576.56 2192.78 6576.56 2070.13Z" fill="white"/>
</g>
<defs>
<clipPath id="clip0_544_1042">
<rect width="7086" height="2876" fill="white"/>
</clipPath>
</defs>
</svg>
